<svg xmlns="http://www.w3.org/2000/svg" width="60.138999938964844" height="47" viewBox="0 0 60.139 47">
  <g id="Group_356" data-name="Group 356" transform="translate(-30 -30)">
    <path id="Path_31" data-name="Path 31" d="M3547.22,2601.521c1.735-1.729,3.317-3.4,5-4.965a9.378,9.378,0,0,1,15.349,9.533,9.444,9.444,0,0,1-15.76,3.79c-5.277-5.23-10.385-10.63-15.618-15.906a13.646,13.646,0,0,0-13.337-3.93,13.865,13.865,0,0,0-10.454,15.451,14,14,0,0,0,15.383,11.564c5.814-.722,9.042-4.839,12.562-8.541l-2.8-3.166c-1.719,1.674-3.25,3.206-4.824,4.691a9.581,9.581,0,0,1-10.422,1.882,9.256,9.256,0,0,1-5.6-8.758,8.977,8.977,0,0,1,5.877-8.363,8.792,8.792,0,0,1,10.152,2.048c5.271,5.236,10.407,10.607,15.635,15.887a13.67,13.67,0,0,0,12.335,4.207c7.131-1.061,12.021-7.191,11.633-14.7-.347-6.7-6.432-12.4-13.348-12.6-6.823-.2-10.775,4.249-14.691,8.724Z" transform="translate(-3482.222 -2559.631)" fill="#4B9583" class="svg-elem-1"></path>
    <line id="Line_13" data-name="Line 13" x2="42" transform="translate(39.5 74.5)" fill="none" stroke="#4B9583" stroke-linecap="round" stroke-width="5" class="svg-elem-2"></line>
  </g>
</svg>
