<svg xmlns="http://www.w3.org/2000/svg" width="44.20399856567383" height="44.26300048828125" viewBox="0 0 44.204 44.263">
  <g id="Group_355" data-name="Group 355" transform="translate(-3699.817 -2586.721)">
    <path id="Path_32" data-name="Path 32" d="M3799.494,2600.812c-.06,2.958.474,2.4-2.555,3.021a7.145,7.145,0,0,0-1.414.312,1.462,1.462,0,0,0-.425,1.939c.5.744,1.027,1.469,1.562,2.187.333.447.419.824-.044,1.263-.867.821-1.707,1.673-2.535,2.533a.758.758,0,0,1-1.167.066c-.656-.493-1.344-.945-2.018-1.413-1.127-.784-2.154-.347-2.413,1.027-.614,3.247-.614,3.247-3.917,3.241-1.77,0-1.768,0-2.032-1.713-.085-.553-.161-1.109-.28-1.655a1.4,1.4,0,0,0-2.334-.927c-.676.466-1.369.912-2.015,1.416a.86.86,0,0,1-1.346-.128c-.768-.815-1.559-1.61-2.376-2.375a.853.853,0,0,1-.072-1.348c.508-.644.973-1.323,1.443-2a1.393,1.393,0,0,0-.879-2.281c-.833-.2-1.685-.316-2.531-.456a.849.849,0,0,1-.81-.988c.029-1.119.03-2.241,0-3.36-.02-.709.3-1,.976-1.078.74-.084,1.472-.237,2.2-.379,1.348-.262,1.75-1.286.961-2.442-.442-.648-.87-1.308-1.353-1.923a.854.854,0,0,1,.142-1.341c.816-.767,1.605-1.563,2.378-2.373a.811.811,0,0,1,1.255-.117c.681.522,1.386,1.015,2.1,1.491a1.382,1.382,0,0,0,2.269-.926c.169-.84.289-1.691.419-2.538a.865.865,0,0,1,.986-.829q1.68.025,3.36,0a.925.925,0,0,1,1.041.916c.123.811.276,1.617.431,2.423a1.391,1.391,0,0,0,2.316.949c.709-.484,1.408-.985,2.089-1.506a.761.761,0,0,1,1.167.087q1.247,1.286,2.534,2.534a.775.775,0,0,1,.088,1.173q-.766,1.035-1.478,2.109a1.364,1.364,0,0,0,.941,2.3,17.465,17.465,0,0,0,2.2.375c.945.057,1.214.538,1.139,1.392C3799.461,2599.912,3799.494,2600.363,3799.494,2600.812Zm-2.176-.045c.022-.451-.214-.667-.657-.727-.591-.08-1.175-.225-1.768-.279-.884-.081-1.188-.615-1.63-1.359a3.618,3.618,0,0,1,.622-4.933c.37-.374.239-.716-.107-1.059a.71.71,0,0,0-1.078-.07c-.442.343-.942.616-1.356.988-.675.605-1.253.456-2.1.209-2-.584-3.1-1.665-3.066-3.8.008-.475-.283-.739-.8-.728a.823.823,0,0,0-.875.823c-.083.591-.2,1.177-.255,1.771-.063.69-.477.941-1.068,1.243-1.9.971-3.636,1.269-5.217-.559-.352-.407-.715-.16-1.05.157a.63.63,0,0,0-.1.967c.4.539.744,1.123,1.166,1.643a1.629,1.629,0,0,1,.144,1.734c-.6,2-1.592,3.353-3.9,3.237-.49-.025-.731.254-.728.774a.8.8,0,0,0,.792.888c.627.091,1.25.211,1.877.306.607.093.874.445,1.175,1,1.046,1.941,1.282,3.7-.562,5.312-.368.321-.185.656.124.955.291.282.555.492.964.195q.906-.658,1.837-1.28c.764-.513,4.154.649,4.438,1.522a4.517,4.517,0,0,1,.124.659c.085.515.167,1.031.252,1.546a.825.825,0,0,0,.885.812c.525,0,.718-.276.793-.742.095-.589.271-1.168.319-1.759.063-.784.532-1.032,1.176-1.4,1.917-1.1,3.579-1.093,5.132.583.319.344.658.214.96-.111.275-.3.484-.573.192-.974a15.224,15.224,0,0,0-.98-1.362c-.694-.76-.512-1.418-.252-2.381a3.507,3.507,0,0,1,3.8-2.914A.722.722,0,0,0,3797.318,2600.766Z" transform="translate(-55.491)" fill="#4B9583" class="svg-elem-1"></path>
    <path id="Path_33" data-name="Path 33" d="M3715.993,2629.1c0,.672-.03,1.346.008,2.016.047.816-.289,1.12-1.11,1.126-.865.007-1.133-.382-1.053-1.16a.859.859,0,0,0,0-.112c-.046-2.757-.046-2.757-2.873-2.767a5.624,5.624,0,0,1-5.857-5.278c-.218-1.813-.5-3.621-.709-5.435a1.807,1.807,0,0,0-1.232-1.68,12.941,12.941,0,0,1-1.7-.848,2.7,2.7,0,0,1-1.216-3.962c.67-1.249,1.353-2.5,2.132-3.68a15.8,15.8,0,0,0,2.318-6.089c.8-4.5,2.821-8.328,6.883-10.786a15.293,15.293,0,0,1,5.873-2.064c.693-.1,1.328,0,1.467.813.145.85-.412,1.22-1.158,1.342-7.15,1.17-10.1,5.785-11.081,11.886a15.785,15.785,0,0,1-2.222,5.647c-.7,1.188-1.378,2.394-2.09,3.576-.447.742-.312,1.252.494,1.6a11.946,11.946,0,0,0,1.31.629c1.783.508,2.339,1.758,2.439,3.494.1,1.819.427,3.627.69,5.435a3.44,3.44,0,0,0,3.733,3.231c1.307.007,2.614.031,3.92-.006.781-.022,1.082.3,1.043,1.059C3715.965,2627.759,3715.992,2628.433,3715.993,2629.1Z" transform="translate(0 -1.268)" fill="#4B9583" class="svg-elem-2"></path>
    <path id="Path_34" data-name="Path 34" d="M3842.343,2722.686a17.76,17.76,0,0,1,2.774-11.186,5.143,5.143,0,0,1,.6-.8.985.985,0,0,1,1.326-.127.954.954,0,0,1,.388,1.265,3.162,3.162,0,0,1-.322.585,15.534,15.534,0,0,0-2.609,9.2c.007,1.342-.017,2.683.007,4.024.013.753-.068,1.278-1.054,1.286-1.035.009-1.149-.535-1.123-1.343C3842.367,2724.624,3842.343,2723.655,3842.343,2722.686Z" transform="translate(-110.56 -95.95)" fill="#4B9583" class="svg-elem-3"></path>
    <path id="Path_35" data-name="Path 35" d="M3816.408,2637.109a4.992,4.992,0,0,1-5-5.063,5.137,5.137,0,0,1,5.039-5.09,5.22,5.22,0,0,1,5.147,5.13A5.115,5.115,0,0,1,3816.408,2637.109Zm2.92-5.082a2.7,2.7,0,0,0-2.918-2.811,2.864,2.864,0,1,0,.086,5.727A2.759,2.759,0,0,0,3819.328,2632.027Z" transform="translate(-86.593 -31.221)" fill="#4B9583" class="svg-elem-4"></path>
  </g>
</svg>
