<svg xmlns="http://www.w3.org/2000/svg" width="46.841" height="45.009" viewBox="0 0 46.841 45.009">
  <g id="Group_354" data-name="Group 354" transform="translate(-3584.617 -2801.087)">
    <path id="Path_36" data-name="Path 36" d="M3627.651,2815.706c-.545,1.116.276,1.758,1.153,2.514a7.394,7.394,0,0,1,.867,10.5,2.258,2.258,0,0,0-.558,2c.678,4.553-1.494,7.832-5.957,8.979a2.054,2.054,0,0,0-1.549,1.358c-2.337,5.463-8.7,6.638-12.7,2.3-.852-.924-1.158-.375-1.7.162-3.224,3.219-7.89,3.569-10.621.216a16.91,16.91,0,0,0-6.372-5.235c-2.922-1.322-3.847-4.35-3.326-7.586a2.334,2.334,0,0,0-.455-2.048c-2.883-3.587-2.3-8.891,1.477-11.194a1.258,1.258,0,0,0,.614-1.36c-.348-4.59,1.057-6.948,5.2-8.726a1.992,1.992,0,0,0,1.111-1.265c2.177-5.419,7.772-6.884,12.3-3.183.756.619,1.163.537,1.854-.061a7.456,7.456,0,0,1,12.14,3.061,2.458,2.458,0,0,0,1.575,1.577A7.655,7.655,0,0,1,3627.651,2815.706Zm-18.377,7.528q0,4.6,0,9.2a22.568,22.568,0,0,0,.618,6.733,4.907,4.907,0,0,0,3.577,3.775,4.529,4.529,0,0,0,4.954-1.885c.671-.9.794-1.648-.411-2.262a5.791,5.791,0,0,1-2.676-2.688,1.4,1.4,0,0,1,.421-1.857,1.257,1.257,0,0,1,1.838.28c.3.327.571.685.889.995a4.68,4.68,0,0,0,5.85.694,4.607,4.607,0,0,0,1.768-5.488,2.463,2.463,0,0,1,.872-3.308,4.814,4.814,0,0,0,1.095-5.711,4.563,4.563,0,0,0-4.608-2.328,9.157,9.157,0,0,0-1.836.552,1.4,1.4,0,1,1-1.166-2.554,7.432,7.432,0,0,1,2.232-.774c2.082-.389,2.393-.845,1.945-2.926a4.021,4.021,0,0,0-3.341-3.376c-1.758-.275-2.533-.928-2.763-2.752a4.535,4.535,0,0,0-4.632-3.619c-1.968.044-4.132,1.7-4.287,3.462a42.088,42.088,0,0,0-.36,4.422C3609.315,2815.619,3609.274,2819.427,3609.274,2823.234Zm-2.765-.205h.006c0-4.849-.129-9.7.061-14.546a4.829,4.829,0,0,0-4.24-4.529,4.575,4.575,0,0,0-4.885,3.835,2.342,2.342,0,0,1-2.377,2.429,4.584,4.584,0,0,0-3.858,4.6c.033.711.006,1.561,1.069,1.656,1.954.176,3.823,1.281,5.894.292a1.421,1.421,0,0,1,2.075,1.071c.23,1.123-.526,1.638-1.532,1.742a2.964,2.964,0,0,0-2.531,1.566,9.352,9.352,0,0,0-.591,1.823c-.2.744-.606,1.3-1.428,1.24a1.35,1.35,0,0,1-1.276-1.539,8.046,8.046,0,0,1,.219-1.754c.314-1.374.078-1.688-1.337-1.558a4.131,4.131,0,0,0-3.918,2.7,4.6,4.6,0,0,0,1.068,5.21,2.919,2.919,0,0,1,.955,3.635,4.262,4.262,0,0,0,1.175,4.766,4.481,4.481,0,0,0,4.689,1,5.374,5.374,0,0,0,2.631-2.08,1.265,1.265,0,0,1,1.838-.342,1.322,1.322,0,0,1,.438,1.935,6.644,6.644,0,0,1-2.082,2.277c-1.524,1.083-1.568,1.595-.312,2.98a4.418,4.418,0,0,0,3.07,1.605c3.007.189,5.145-1.889,5.171-5.169C3606.538,2832.926,3606.509,2827.977,3606.509,2823.029Z" transform="translate(0)" fill="#4B9583"/>
  </g>
</svg>
