<svg xmlns="http://www.w3.org/2000/svg" width="46.964" height="46.889" viewBox="0 0 46.964 46.889">
  <g id="Group_366" data-name="Group 366" transform="translate(-3189.168 -2322.779)">
    <path id="Path_38" data-name="Path 38" d="M3226.93,2335.918l2.411.481c-5.425-10.262-20.066-12.878-29.066-5.191-5.979,5.106-8.256,11.625-6.561,19.385.239,1.095.1,1.72-1.031,2.118a11.208,11.208,0,0,0-2.013,1.2c-3.729-8.95-.472-22.159,10.757-28.3,10.533-5.756,25.264-2.948,32.294,10.081l2.412-1.913c-.694,4.333-1.3,8.136-1.982,12.386Z" fill="#4B9583"/>
    <path id="Subtraction_1" data-name="Subtraction 1" d="M7.615,15.278H7.553a7.557,7.557,0,0,1-5.395-2.23A7.756,7.756,0,0,1,0,7.46,7.486,7.486,0,0,1,2.267,2.18,7.569,7.569,0,0,1,7.595,0l.169,0a7.491,7.491,0,0,1,2.943.675,7.96,7.96,0,0,1,2.422,1.7A7.841,7.841,0,0,1,14.76,4.836a7.215,7.215,0,0,1,.568,2.927A7.561,7.561,0,0,1,13,13.067,7.693,7.693,0,0,1,7.615,15.278ZM5.364,6.595c-.533,0-1.005,0-1.442,0-.756,0-1.258.394-1.279.993a1.023,1.023,0,0,0,.272.777,1.451,1.451,0,0,0,1.058.378h.345c.89,0,1.9.005,2.872.005,1.6,0,2.926-.007,4.177-.022A1.021,1.021,0,0,0,12.523,7.64c0-.666-.4-1-1.207-1.027-.442-.014-.93-.02-1.535-.02l-.9,0H8.852c-.305,0-.631,0-.958,0H7.719l-.69,0H7.023Z" transform="translate(3189.668 2353.89)" fill="#4B9583" stroke="rgba(0,0,0,0)" stroke-miterlimit="10" stroke-width="1"/>
    <path id="Path_40" data-name="Path 40" d="M3242.58,2352.414c0-1.936,0-3.872,0-5.808,0-1.356.445-2.417,2.006-2.426,1.579-.009,1.992,1.051,1.988,2.416-.007,3,.047,6.009-.026,9.011-.028,1.135.3,1.514,1.45,1.456,1.8-.093,3.6,0,5.4-.033,1.37-.028,2.264.63,2.306,1.937a1.963,1.963,0,0,1-2.206,2.063c-2.87.032-5.741.037-8.61,0a2.128,2.128,0,0,1-2.313-2.409Q3242.58,2355.518,3242.58,2352.414Z" transform="translate(-31.932 -12.802)" fill="#4B9583"/>
    <path id="Path_41" data-name="Path 41" d="M3228.2,2431.282a2.251,2.251,0,0,1,.076-.286c1.044-2.248,2.357-3.527,5.2-2.554,1.556.532,3.441.107,5.177.1a1.879,1.879,0,0,1,2.112,1.692,1.828,1.828,0,0,1-1.766,2.234A22.113,22.113,0,0,1,3228.2,2431.282Z" transform="translate(-23.335 -63.009)" fill="#4B9583"/>
    <path id="Path_42" data-name="Path 42" d="M3295.409,2389.01a1.631,1.631,0,0,1,1.887,1.406,6.232,6.232,0,0,1-1.56,4.74,1.677,1.677,0,0,1-2.362.018c-.341-.27-.759-.754-.737-1.117a8.694,8.694,0,0,1,1.5-4.614A1.469,1.469,0,0,1,3295.409,2389.01Z" transform="translate(-61.877 -39.617)" fill="#4B9583"/>
    <path id="Path_43" data-name="Path 43" d="M3286.9,2409.951c-.082,1.583-2.714,4.3-3.936,4.215a1.811,1.811,0,0,1-1.822-2.133c.056-1.28,2.666-3.957,3.782-3.915A1.877,1.877,0,0,1,3286.9,2409.951Z" transform="translate(-55 -51.048)" fill="#4B9583"/>
    <path id="Path_44" data-name="Path 44" d="M3267.64,2422.194a2.015,2.015,0,0,1,2,1.018,1.739,1.739,0,0,1-.224,2.214,8.271,8.271,0,0,1-3.845,1.966,1.765,1.765,0,0,1-1.963-1.064,1.615,1.615,0,0,1,.22-2.029C3264.938,2423.206,3266.445,2422.809,3267.64,2422.194Z" transform="translate(-44.36 -59.468)" fill="#4B9583"/>
  </g>
</svg>
