<svg xmlns="http://www.w3.org/2000/svg" width="55.961" height="45.446" viewBox="0 0 55.961 45.446">
  <g id="Group_367" data-name="Group 367" transform="translate(-3246.615 -2672.712)">
    <path id="Path_46" data-name="Path 46" d="M3318.063,2718.157h-1.546c0-1.577.007-3.1,0-4.625-.007-1.327-.041-2.654-.045-3.981a6.726,6.726,0,0,0-4.552-6.718c-2.179-.886-4.351-1.788-6.993-2.875-.7.809-1.563,1.8-2.414,2.8-.458.54-.956.785-1.6.308a4.29,4.29,0,0,0-5.608-.01c-.632.47-1.128.249-1.607-.284-.443-.492-.952-.925-1.411-1.4-.429-.447-.831-.92-1.225-1.36-2.465,1.048-4.769,2.052-7.092,3.01a6.415,6.415,0,0,0-4.226,6.39c-.029,2.613-.039,5.226-.061,7.839,0,.283-.023.566-.038.9h-1.692c.131-3.859-.446-7.762.586-11.575a7.648,7.648,0,0,1,4.6-5.071q2.667-1.169,5.385-2.219a5.381,5.381,0,0,0,2.99-2.459,6.042,6.042,0,0,1,.81-1.1,2.367,2.367,0,0,0,.086-3,14.383,14.383,0,0,1-3.009-8.755,33.973,33.973,0,0,1,.192-4.589,6.848,6.848,0,0,1,5.726-6.335,11.188,11.188,0,0,1,7.525.673,6.446,6.446,0,0,1,3.627,4.783c.7,4.012.655,8.008-1.172,11.789a14.929,14.929,0,0,1-1.266,2.132c-.974,1.372-.777,2.107.029,3.6,1.192,2.2,3.126,3.152,5.287,3.954a37.557,37.557,0,0,1,4.214,1.8,7.711,7.711,0,0,1,4.472,6.825C3318.16,2711.747,3318.063,2714.894,3318.063,2718.157Zm-13-35.191a5.028,5.028,0,0,0-.994.414,2.862,2.862,0,0,1-3.106.117c-1.81-.794-3.755-1.312-5.493-2.231-1.584-.838-2.744-.172-3.981.553a.966.966,0,0,0-.358.688,13.029,13.029,0,0,0,1.9,8.175,4.3,4.3,0,0,0,2.253,1.744,14.446,14.446,0,0,0,4.292.3,3.808,3.808,0,0,0,3.179-1.4A12.777,12.777,0,0,0,3305.062,2682.966Zm-13.849-3.082a4.043,4.043,0,0,0,.9-.364c1.071-.818,2.123-.562,3.242-.086,1.9.808,3.893,1.416,5.728,2.345,1.571.8,2.574-.231,3.757-.764.147-.066.241-.424.229-.639-.136-2.411-.941-4.791-3.647-5.439a16.23,16.23,0,0,0-5.392-.307C3293.03,2674.946,3291.592,2676.635,3291.213,2679.884Zm2.375,17.445c-.429-.019-1.478,1.114-1.147,1.552a10.22,10.22,0,0,0,2.244,2.281c.288.2,1.1-.307,1.647-.546.946-.412,1.73-1.053,2.938-.348,2.146,1.252,2.224,1.171,3.892-.663a1.629,1.629,0,0,0,.432-1.3,1.244,1.244,0,0,0-1.617-.912,12.615,12.615,0,0,1-6.839.175A11.116,11.116,0,0,0,3293.588,2697.329Zm1.068-1.649a10.475,10.475,0,0,0,6.847,0v-1.316h-6.847Z" transform="translate(-23.501)" fill="#4B9583"/>
    <path id="Path_47" data-name="Path 47" d="M3254.4,2735.726v1.664a33.02,33.02,0,0,1-5.626-.1c-.767-.134-1.574-1.305-1.927-2.181a7.085,7.085,0,0,1-.159-2.947c.017-.3.438-.655.758-.846,1.586-.952,3.2-1.857,4.736-2.74a34.78,34.78,0,0,1-1.092-3.654c-.866-4.705,2.622-7.756,7.19-6.346a4.378,4.378,0,0,1,3.085,4.588,44.688,44.688,0,0,1-.912,5.567l3.139,1.929-.817,1.406c-1.131-.661-2.168-1.332-3.267-1.877a1.973,1.973,0,0,0-1.436-.127,4.761,4.761,0,0,1-3.731,0,1.977,1.977,0,0,0-1.443.1c-1.292.645-2.5,1.453-3.792,2.106-1.265.641-.762,1.634-.659,2.581.106.972.817.875,1.479.877C3251.372,2735.728,3252.817,2735.726,3254.4,2735.726Zm5.509-11.832-.259-.07a13.883,13.883,0,0,0-.009-1.489,2.467,2.467,0,0,0-2.236-2.278c-2.1-.345-3.937.127-4.323,1.3a6.586,6.586,0,0,0,.532,5.956,2.971,2.971,0,0,0,5.281-.184A16.286,16.286,0,0,0,3259.911,2723.894Z" transform="translate(0 -34.18)" fill="#4B9583"/>
    <path id="Path_48" data-name="Path 48" d="M3414.41,2728.63c1.6.922,3.1,1.863,4.679,2.659a1.66,1.66,0,0,1,1.021,1.859c-.086,1.331,0,2.693-1.1,3.685a2.387,2.387,0,0,1-1.254.713c-1.771.081-3.546.034-5.379.034v-1.712c1.547,0,3.071-.007,4.595,0,.611,0,1.256-.007,1.3-.791.045-.869.731-1.884-.463-2.551-1.373-.766-2.716-1.589-4.11-2.312a1.631,1.631,0,0,0-1.232-.044,4.7,4.7,0,0,1-3.851.013,1.785,1.785,0,0,0-1.327.105c-1.1.561-2.143,1.233-3.3,1.916l-.848-1.393,3.563-2.19a8.446,8.446,0,0,1-1.112-6.726c.613-2.415,2.383-3.582,5.291-3.475a4.509,4.509,0,0,1,4.7,3.779A9.24,9.24,0,0,1,3414.41,2728.63Zm-.284-4.658c-.073-2.331-.563-3.37-2.062-3.647a10.582,10.582,0,0,0-3.069-.017,2.045,2.045,0,0,0-1.853,2.021,15.725,15.725,0,0,0,0,3.219,3.575,3.575,0,0,0,3.125,3.322c1.86.08,3.077-.956,3.564-3.073C3413.971,2725.2,3414.031,2724.581,3414.126,2723.972Z" transform="translate(-117.543 -34.324)" fill="#4B9583"/>
    <path id="Path_49" data-name="Path 49" d="M3306.416,2827.651H3308v6.839h-1.586Z" transform="translate(-44.91 -116.357)" fill="#4B9583"/>
    <path id="Path_50" data-name="Path 50" d="M3406.752,2834.523h-1.564v-6.855h1.564Z" transform="translate(-119.086 -116.37)" fill="#4B9583"/>
    <path id="Path_51" data-name="Path 51" d="M3357.375,2813.806v1.585h-1.536v-1.585Z" transform="translate(-82.026 -105.96)" fill="#4B9583"/>
    <path id="Path_52" data-name="Path 52" d="M3357.511,2799.662v1.57h-1.492v-1.57Z" transform="translate(-82.161 -95.338)" fill="#4B9583"/>
  </g>
</svg>
