<svg xmlns="http://www.w3.org/2000/svg" width="58.181" height="47.163" viewBox="0 0 58.181 47.163">
  <g id="Group_368" data-name="Group 368" transform="translate(-3376.146 -2958.972)">
    <path id="Path_53" data-name="Path 53" d="M3378.388,2985.813c-.4-.116-.745-.218-1.089-.313-.228-.063-.515-.049-.68-.185-.854-.705-.269-1.671-.367-2.513-.022-.19.405-.52.687-.637a11.032,11.032,0,0,1,1.629-.383c-.456-.449-.755-.78-1.091-1.069a.925.925,0,0,1-.191-1.44,1.683,1.683,0,0,0,.123-.2c1.016-1.755.725-1.63,2.508-1,.551.192.7.032.547-.5a5.218,5.218,0,0,1-.307-1.059,1.834,1.834,0,0,1,.249-.827c.134-.287.42-.529.477-.822.314-1.628.58-3.266.866-4.923a2.726,2.726,0,0,1-1.866-2.379,2.488,2.488,0,0,1,1.3-2.452,2.379,2.379,0,0,1,2.759.127,1.019,1.019,0,0,0,1.209.086c2.254-1.036,4.522-2.042,6.767-3.1a1.082,1.082,0,0,0,.5-.733,2.643,2.643,0,0,1,5.028-1,1.062,1.062,0,0,0,.765.45q5.076.042,10.151-.005a1.05,1.05,0,0,0,.738-.478,2.646,2.646,0,0,1,5.02,1.3,1.069,1.069,0,0,0,.412.782q3.338,2.056,6.729,4.027a.994.994,0,0,0,.821-.025,2.63,2.63,0,0,1,3.846,3.223,1.145,1.145,0,0,0-.037.732c1.306,3.084,2.637,6.159,3.995,9.313.86-.582,1.467-.126,1.968.494.576.713-.114,1.205-.359,1.657.379.864.7,1.664,1.09,2.435a.871.871,0,0,0,.592.339c.948.146,1.152.348,1.154,1.261,0,.944-.182,1.178-1.116,1.254a.7.7,0,0,0-.749.625,2.9,2.9,0,0,1-.363.957c-.393.622-.667,1.136-.07,1.872.425.523-.1,1.008-.553,1.375s-.969.519-1.339.057c-.5-.625-.931-.385-1.5-.169s-.931.376-.961,1.091c-.036.859-.746.872-1.42.849-.64-.021-1.014-.317-1.01-.959a.727.727,0,0,0-.7-.85,6.692,6.692,0,0,1-.888-.325c-.137-.043-.338-.088-.433-.022-.7.49-1.382,1-2.048,1.525-.329.261-.592.6-.912.879-.769.659-1.389,1.259-.885,2.476a1.987,1.987,0,0,1-.818,2.247,1.124,1.124,0,0,0-.453,1.08c.069,1.267.105,2.535.167,3.8.021.445-.07.882-.577.821-.219-.025-.528-.478-.552-.758-.118-1.389-.154-2.785-.218-4.157l-1.617-.519c-.724.887-1.485,1.8-2.208,2.734a.8.8,0,0,0-.028.626,2.675,2.675,0,0,1-1,3.219,2.624,2.624,0,0,1-3.651-3.578.958.958,0,0,0,.13-.7c-.928-2.039-1.892-4.062-2.839-6.075-2.559.248-3.512-.476-3.793-2.9-.776-.042-1.562-.1-2.35-.124-2.192-.073-4.386-.106-6.577-.214a3.206,3.206,0,0,0-2.3.609,1,1,0,0,1-1.652-.268,4.573,4.573,0,0,0-.855-.738,5.743,5.743,0,0,0-.386,1.07c-.121.761-.487,1.049-1.279,1.031-1.821-.042-1.822-.005-2.3-1.775-.034-.123-.082-.243-.2-.576-.4.4-.734.7-1.015,1.04a.922.922,0,0,1-1.436.2.636.636,0,0,0-.066-.044c-1.641-.93-1.638-.929-1.091-2.714a2.448,2.448,0,0,0,.005-.57c-.562.161-1.062.284-1.547.45a.726.726,0,0,1-.994-.37c-.012-.024-.024-.047-.039-.069-1.1-1.722-1.1-1.721.315-3.182A2.156,2.156,0,0,0,3378.388,2985.813Zm-1-1.56c.778.446,1.792.1,2.125,1.328.345,1.274-.758,1.464-1.195,2.136.171.807.6,1.018,1.352.67a1.207,1.207,0,0,1,1.448.181,1.266,1.266,0,0,1,.4,1.768c-.169.333-.468.776.145,1.149s.765-.145,1.078-.406c.291-.244.582-.631.9-.667,1.018-.113,1.572.4,1.761,1.443.066.368-.024.781.609.808.611.026.668-.306.771-.743.127-.538.138-1.1.909-1.309a1.425,1.425,0,0,1,1.864.661c.3.522.72.545,1.074.119.152-.182.118-.548.111-.829-.012-.453-.256-1-.077-1.34.515-.962,1.017-1.067,2.091-.7.22.076.44.149.7.237l.526-.874c-1.343-1.346-1.259-1.334-1.152-2.078.137-.962.767-1.181,1.546-1.233.5-.034.585-.276.589-.719,0-.5-.309-.529-.654-.609-.6-.14-1.2-.181-1.419-1.008a1.354,1.354,0,0,1,.584-1.748,6.155,6.155,0,0,0,.529-.394c-.2-.981-.684-1.105-1.36-.772a1.182,1.182,0,0,1-1.587-.369,1.21,1.21,0,0,1-.293-1.545,5.058,5.058,0,0,0,.259-.8c-.542-.62-1.005-.637-1.474.037a1.324,1.324,0,0,1-1.5.562c-.929-.166-1.14-.745-1.165-1.5-.023-.728-.5-.774-.966-.617-.2.067-.317.479-.412.754-.173.5-.152,1.032-.875,1.257a1.415,1.415,0,0,1-1.877-.615,4.259,4.259,0,0,0-.5-.544l-.829.5c-.032.881.8,1.586-.1,2.492-.933.938-1.646.085-2.509.044l-.476.817c.465.759,1.509,1.015,1.172,2.265-.346,1.285-1.466.771-2.142,1.265ZM3410.478,2974c-.787-1.8-.424-2.9,1.564-4.034-.3-1.713-.605-3.448-.911-5.184a1.043,1.043,0,0,0-1.724-.671c-2.9,2.289-5.791,4.592-8.7,6.865-.525.409-.954.751-.718,1.525.089.292-.127.666-.129,1a1.567,1.567,0,0,0,.165.9c1,1.325,2.133,2.562,3.062,3.936.553.818,1.432.662,2.106,1.058.067.039.286-.1.386-.208C3407.192,2977.483,3408.8,2975.775,3410.478,2974Zm-3.7,8.349c-.779.7-1.387,1.2-1.949,1.761a.94.94,0,0,0-.21.668c.148,1.684.322,3.367.508,5.047a.855.855,0,0,0,.258.532c.6.48,1.227.923,1.948,1.456,3.459-1.821,7.077-3.723,10.689-5.633.149-.079.355-.239.363-.37.048-.874.64-.975,1.321-1.036.193-.018.371-.208.555-.319l-.1-.242Zm18.06-11.291a2.868,2.868,0,0,1-2.825-.151,1.211,1.211,0,0,0-.8-.041c-1.77.522-3.53,1.071-5.292,1.62a1.1,1.1,0,0,0-.412,1.888q2.626,2.525,5.256,5.049c.294.284.534.508,1.023.293a1.014,1.014,0,0,1,.888.292.821.821,0,0,0,1.227.176c.24-.147.579-.138.808-.294a1.176,1.176,0,0,0,.507-.645c.157-.924.372-1.163,1.245-1.172.855-.008,1.18.239,1.257,1.156.049.588.3.771.949.739Zm-3.622,11.2a6.883,6.883,0,0,0-.914-1.615c-1.886-1.888-3.832-3.716-5.776-5.544a1.028,1.028,0,0,0-.674-.134c-.62.026-1.239.08-1.855.15a1.369,1.369,0,0,0-.742.214q-2.384,2.266-4.712,4.59c-.169.169-.333.553-.253.712a1.127,1.127,0,0,0,.713.558c4.285.619,8.58,1.174,12.86,1.82C3420.629,2983.121,3421,2982.917,3421.213,2982.253Zm-23.9,8.729v.234c1.028,0,2.058-.029,3.086.008,1.152.042,2.323.2,3.205-.787a1.155,1.155,0,0,0,.342-.719c-.116-1.393-.292-2.78-.441-4.17-.078-.723-.066-1.474-1.032-1.679-.225-.047-.379-.371-.607-.483a1.389,1.389,0,0,0-.854-.223c-1.211.363-2.406.782-3.593,1.219-.559.205-1.268.193-1.5.969-.042.138-.4.2-.628.26-.306.078-.623.113-.933.175-.424.083-.465.308-.19.6s.586.538.838.84c.139.167.324.477.258.6a8.827,8.827,0,0,1-1.309,2.124c-.187.2-.952-.159-1.452-.266-.128-.027-.267-.112-.379-.083a.5.5,0,0,0-.332.25.981.981,0,0,0,.854,1.121C3394.206,2990.986,3395.761,2990.983,3397.316,2990.983Zm-5.486-12.74c2.3-.189,3-2.136,4.415-3.207a3.056,3.056,0,0,1-1.5-2.833c-.132-.056-.272-.128-.42-.177-2.831-.936-5.667-1.858-8.493-2.812-.69-.233-1.317-.5-1.857.28-.131.191-.465.23-.682.376-.155.1-.357.25-.387.406-.263,1.4-.491,2.8-.7,4.005l1.986,1.882a10.018,10.018,0,0,1,.408-1.5c.13-.291.439-.721.654-.714.836.031,1.759-.38,2.493.282.177.16.149.547.216.829.075.319.15.638.278,1.178a10.566,10.566,0,0,1,1.3-1.244,1.065,1.065,0,0,1,.954-.1c.645.471,1.724.465,1.857,1.5.04.306-.2.645-.3.973C3391.976,2977.606,3391.927,2977.851,3391.83,2978.243Zm11.456-16.083v0c-1.636,0-3.276.071-4.907-.023-1.25-.073-.983,1.4-1.87,1.642-.106.029-.179.23-.234.366-.022.054.047.144.068.22.48,1.752.948,3.509,1.446,5.258a1.423,1.423,0,0,0,1.935.643q4.47-3.534,8.929-7.08c.187-.149.259-.443.384-.67a2.25,2.25,0,0,0-.763-.336C3406.611,2962.146,3404.948,2962.161,3403.285,2962.161Zm3.952,31.055c.413.1.661.166.913.218,1.987.4,3.977.8,5.961,1.214a2.33,2.33,0,0,0,1.809-.121,1.852,1.852,0,0,1,1.372-.131,1.3,1.3,0,0,0,1.608-.547c.217-.264.481-.486.719-.734.55-.575,1.394-1,1.038-2.042a.26.26,0,0,1,.051-.224c.79-.695.483-1.357-.027-2.039a3.1,3.1,0,0,1-.273-.653c-.162-.381-.122-.937-.8-.858-.458.053-.993-.082-1.371.109-2.6,1.316-5.181,2.692-7.761,4.057C3409.438,2992.014,3408.408,2992.582,3407.237,2993.216Zm-10.6-23.261c-.418-1.537-.86-3.054-1.236-4.588-.173-.707-.374-1.247-1.236-1.342-.348-.038-.645-.43-.995-.6a1.016,1.016,0,0,0-.726-.117q-3.508,1.542-6.98,3.162a.77.77,0,0,0-.349.624c.031.274.2.692.41.764,3.088,1.061,6.189,2.079,9.294,3.087a.842.842,0,0,0,.619-.105C3395.84,2970.592,3396.2,2970.286,3396.642,2969.955Zm25.558,21.019c.944-.755.938-.738,1.98-.28a5.429,5.429,0,0,0,1.356.419.84.84,0,0,1,.816.957,3.827,3.827,0,0,0,.06.468c0-1.106.652-1.467,1.608-1.573a1.579,1.579,0,0,0,.784-.355,1.015,1.015,0,0,1,1.676.21,1.007,1.007,0,0,0,.247.178c-.773-.8-.583-1.47.045-2.257a3.955,3.955,0,0,0,.658-1.669c.125-.626.377-.957,1.035-.93a5.733,5.733,0,0,0,.763-.1,2.885,2.885,0,0,0-.533-.133c-.816.045-1.117-.353-1.289-1.145a5.507,5.507,0,0,0-.983-1.948c-.375-.518-.451-.918-.027-1.4.112-.127.194-.281.393-.572-.681.317-.926,1.163-1.734.755a7.459,7.459,0,0,0-1.761-.678c-.862-.186-.507-1.018-.919-1.5.218,1.161-.409,1.491-1.358,1.633a3.7,3.7,0,0,0-1.3.56.824.824,0,0,1-1.195-.116,4.031,4.031,0,0,0-.5-.378c.636,1.135.6,1.116.037,2.118a6.591,6.591,0,0,0-.729,1.82.952.952,0,0,1-1.012.882c-.205.008-.409.029-.613.044a.589.589,0,0,0,.42.177c.761-.039,1.138.27,1.256,1.067a4.177,4.177,0,0,0,.66,1.587C3422.716,2989.852,3422.749,2989.832,3422.2,2990.973Zm-19.93-11.822-3.542-4.449c-.622.447-1.251.838-1.806,1.315-.539.463-1,1.013-1.494,1.529-.861.9-.887.92-.241,2a.835.835,0,0,1-.255,1.278c-.346.26-.65.575-1.009.9.722.779,2.438.083,2.228,1.841,1.643-.558,3.166-1.064,4.677-1.6a.928.928,0,0,0,.426-.475C3401.589,2980.766,3401.889,2980.036,3402.271,2979.151Zm18.555-10.677.221.023c-.107-.284-.131-.7-.336-.831-2.289-1.409-4.586-2.806-6.937-4.105-.271-.151-.9.276-1.323.508-.125.068-.185.4-.154.588.24,1.456.523,2.9.764,4.359.1.618.243,1.128.96,1.34a1.636,1.636,0,0,1,.81.721c.235.392.48.386.844.27,1.355-.433,2.709-.866,4.075-1.262C3420.544,2969.853,3421.344,2969.68,3420.826,2968.474Zm-14.292,25.843c1.12,2.389,2.132,4.55,3.063,6.537.822.113,1.48.233,2.145.279a.878.878,0,0,0,.628-.273c.624-.715,1.213-1.461,1.8-2.2.125-.159.3-.365.282-.537-.053-.741-.167-1.478-.265-2.267Zm2.687,9.189a1.5,1.5,0,0,0,1.372,1.472,1.47,1.47,0,0,0,1.5-1.422,1.436,1.436,0,0,0-2.871-.05Zm14.29-33.331a1.444,1.444,0,0,0,1.436-1.474,1.437,1.437,0,1,0-2.873.085A1.442,1.442,0,0,0,3423.511,2970.175Zm-12.039-10.024a1.5,1.5,0,0,0-1.437,1.41,1.461,1.461,0,0,0,1.453,1.458,1.407,1.407,0,0,0,1.418-1.472A1.462,1.462,0,0,0,3411.472,2960.15Zm-27.588,7.3a1.383,1.383,0,0,0-1.3-1.5,1.458,1.458,0,0,0-1.56,1.343,1.489,1.489,0,0,0,1.4,1.521A1.419,1.419,0,0,0,3383.884,2967.449Zm30.276,5.1a1.437,1.437,0,0,0-2.873.1,1.484,1.484,0,0,0,1.438,1.4A1.512,1.512,0,0,0,3414.161,2972.546Zm-9.533,18.9a1.388,1.388,0,0,0-1.451,1.418,1.47,1.47,0,0,0,1.453,1.454,1.51,1.51,0,0,0,1.429-1.494A1.457,1.457,0,0,0,3404.628,2991.446Zm-.787-11.2a1.447,1.447,0,0,0-1.431,1.481,1.48,1.48,0,0,0,1.457,1.384,1.443,1.443,0,0,0,1.417-1.491A1.418,1.418,0,0,0,3403.841,2980.244Zm-6.488-9.072a1.472,1.472,0,0,0-1.415,1.421,1.511,1.511,0,0,0,1.482,1.448,1.489,1.489,0,0,0,1.39-1.521A1.4,1.4,0,0,0,3397.353,2971.172Zm20.928,25.742a1.476,1.476,0,0,0-1.409-1.43,1.436,1.436,0,1,0,1.409,1.43Zm-21.779-35.333a1.513,1.513,0,0,0-1.5-1.434,1.47,1.47,0,0,0-1.377,1.459,1.415,1.415,0,0,0,1.4,1.414A1.473,1.473,0,0,0,3396.5,2961.581Z" fill="#4B9583"/>
    <path id="Path_55" data-name="Path 55" d="M3425.1,3024.214a1.436,1.436,0,0,1,2.871.05,1.469,1.469,0,0,1-1.5,1.422A1.5,1.5,0,0,1,3425.1,3024.214Z" transform="translate(-15.878 -20.708)" fill="#4B9583"/>
    <path id="Path_56" data-name="Path 56" d="M3445.559,2974.171a1.443,1.443,0,0,1-1.437-1.388,1.437,1.437,0,1,1,2.873-.085A1.443,1.443,0,0,1,3445.559,2974.171Z" transform="translate(-22.048 -3.997)" fill="#4B9583"/>
    <path id="Path_57" data-name="Path 57" d="M3427.741,2960.716a1.462,1.462,0,0,1,1.434,1.4,1.407,1.407,0,0,1-1.418,1.472,1.461,1.461,0,0,1-1.453-1.458A1.5,1.5,0,0,1,3427.741,2960.716Z" transform="translate(-16.269 -0.566)" fill="#4B9583"/>
    <path id="Path_58" data-name="Path 58" d="M3431.031,2978.4a1.511,1.511,0,0,1-1.434,1.5,1.484,1.484,0,0,1-1.438-1.4,1.437,1.437,0,0,1,2.873-.1Z" transform="translate(-16.87 -5.855)" fill="#4B9583"/>
    <path id="Path_59" data-name="Path 59" d="M3417.6,3007.036a1.458,1.458,0,0,1,1.431,1.378,1.511,1.511,0,0,1-1.429,1.494,1.47,1.47,0,0,1-1.453-1.454A1.389,1.389,0,0,1,3417.6,3007.036Z" transform="translate(-12.977 -15.59)" fill="#4B9583"/>
    <path id="Path_60" data-name="Path 60" d="M3416.449,2990.456a1.418,1.418,0,0,1,1.443,1.374,1.443,1.443,0,0,1-1.417,1.491,1.479,1.479,0,0,1-1.457-1.384A1.447,1.447,0,0,1,3416.449,2990.456Z" transform="translate(-12.608 -10.212)" fill="#4B9583"/>
    <path id="Path_61" data-name="Path 61" d="M3406.855,2977.029a1.4,1.4,0,0,1,1.458,1.347,1.489,1.489,0,0,1-1.39,1.521,1.511,1.511,0,0,1-1.482-1.448A1.472,1.472,0,0,1,3406.855,2977.029Z" transform="translate(-9.502 -5.857)" fill="#4B9583"/>
    <path id="Path_62" data-name="Path 62" d="M3404.894,2962.145a1.473,1.473,0,0,1-1.475,1.439,1.415,1.415,0,0,1-1.4-1.414,1.469,1.469,0,0,1,1.377-1.459A1.512,1.512,0,0,1,3404.894,2962.145Z" transform="translate(-8.391 -0.564)" fill="#4B9583"/>
    <path id="Path_63" data-name="Path 63" d="M3384.024,2993.4a4.725,4.725,0,0,1,4.767-4.7,4.737,4.737,0,1,1-.082,9.473A4.7,4.7,0,0,1,3384.024,2993.4Zm8.28.057a3.565,3.565,0,0,0-7.129-.062,3.565,3.565,0,1,0,7.129.062Z" transform="translate(-2.555 -9.641)" fill="#4B9583"/>
    <path id="Path_64" data-name="Path 64" d="M3448.652,3000.98a3.775,3.775,0,1,1,3.809-3.722A3.783,3.783,0,0,1,3448.652,3000.98Zm.037-6.379a2.623,2.623,0,0,0-.028,5.245,2.693,2.693,0,0,0,2.637-2.7A2.655,2.655,0,0,0,3448.689,2994.6Z" transform="translate(-22.294 -11.177)" fill="#4B9583"/>
  </g>
</svg>
